<svg width="100" height="100" viewBox="0 0 100 100" xmlns="http://www.w3.org/2000/svg">
<g clip-path="url(#clip0_18533_2)">
<path d="M72.408 0.00401817C71.7607 0.0307487 71.1394 0.2663 70.6371 0.675447C70.1348 1.08459 69.7785 1.64535 69.6214 2.27386C69.4642 2.90236 69.5148 3.56485 69.7654 4.16224C70.0161 4.75963 70.4534 5.25982 71.012 5.58802C83.334 13.058 90.396 26.477 89.465 40.538C88.534 54.598 79.754 67.034 66.541 72.898C53.328 78.763 37.864 77.056 26.338 68.475C26.022 68.2397 25.6628 68.0689 25.2809 67.9724C24.8989 67.8759 24.5017 67.8556 24.1118 67.9126C23.722 67.9696 23.3472 68.1028 23.0089 68.3047C22.6706 68.5065 22.3753 68.7731 22.14 69.089C21.9047 69.405 21.7339 69.7642 21.6374 70.1462C21.5409 70.5281 21.5206 70.9254 21.5776 71.3152C21.6346 71.705 21.7678 72.0798 21.9697 72.4181C22.1715 72.7564 22.438 73.0517 22.754 73.287C25.3491 75.2188 28.1437 76.8669 31.09 78.203C24.33 80.083 20 83.117 20 87.143C20 94.243 32.381 100 50 100C67.619 100 80 94.243 80 87.143C80 83.173 75.795 80.163 69.195 78.279C84.264 71.495 94.376 57.166 95.451 40.934C96.531 24.622 88.304 9.05402 74.121 0.457018C73.6086 0.136992 73.0116 -0.0208964 72.408 0.00401817ZM35.641 79.98C39.1603 81.1419 42.8058 81.8791 46.5 82.176V84.246C46.5 84.9687 46.8688 85.6618 47.5251 86.1729C48.1815 86.6839 49.0717 86.971 50 86.971C50.9283 86.971 51.8185 86.6839 52.4749 86.1729C53.1312 85.6618 53.5 84.9687 53.5 84.246V82.215C57.2882 81.9464 61.0291 81.2143 64.639 80.035C70.315 81.282 74 83.226 74 85.43C74 89.217 63.255 92.287 50 92.287C36.745 92.287 26 89.217 26 85.43C26 83.196 29.787 81.226 35.641 79.98Z"/>
<path d="M63.7882 5.38668C45.8895 -1.87227 25.4646 6.76437 18.2049 24.6633C10.9456 42.5612 19.5835 62.9855 37.4822 70.2445C55.3495 77.4906 75.7277 68.8944 83.0218 51.0624C83.0379 51.0316 83.0525 51.0001 83.0655 50.9679C83.0772 50.9391 83.0876 50.9099 83.0968 50.8802C90.2936 33.0033 81.6582 12.634 63.7882 5.38668ZM62.7896 7.25287C63.3721 7.55384 63.9443 7.87222 64.4946 8.23135C63.9583 9.67866 63.194 12.4782 60.4396 11.2511C58.0885 10.4476 53.7894 14.785 54.0255 10.4916C54.9596 8.61972 59.8668 6.07397 55.274 5.85996C53.9169 6.74782 53.2084 9.13305 51.7337 8.21991C50.345 10.0261 49.2507 8.16995 49.293 7.16104C48.3502 7.29874 49.2134 8.98021 48.1132 9.24508C51.2525 8.5869 47.4761 11.4013 48.4951 12.9324C46.6242 13.6799 47.6921 17.9637 45.1905 15.9749C42.743 14.4968 48.5654 13.4961 44.8019 13.5731C42.6038 13.2092 42.2449 14.4027 43.6305 15.3174C41.7619 16.0378 40.0084 15.4075 39.4379 14.5104C36.8509 14.988 34.233 15.8134 31.7698 17.0316C29.2382 16.1409 27.7554 21.4036 26.768 20.4065C27.2621 18.8104 28.7998 16.5328 27.0683 16.2502C26.7223 15.9567 26.2871 15.9842 25.8291 16.2062C34.7493 5.95835 49.4714 1.95408 62.7896 7.25287ZM67.0679 9.32242C67.463 9.55064 67.8511 9.7857 68.2333 10.0271C68.6977 10.4624 68.9399 10.8919 68.0662 10.6573L67.494 10.1631C67.0648 9.61465 66.9765 9.3749 67.0679 9.32242ZM73.415 14.0803C82.843 23.126 86.3332 37.3248 81.1201 50.1778C77.6777 58.6649 71.1033 64.9301 63.2737 68.1875C64.6174 66.7073 65.7381 64.9046 67.5218 63.9308C69.3458 61.615 67.4199 58.6512 69.9447 56.8504C68.5426 56.4685 66.8219 53.9138 64.4607 55.4895C62.7607 54.826 60.3376 56.0994 59.1771 54.4516C57.5923 52.3652 55.7854 49.946 56.22 47.1746C57.2753 45.3044 57.6943 42.5288 58.6237 40.7748C60.8418 37.9876 64.128 37.1053 65.9178 34.1876C66.2085 34.0853 68.6102 33.4021 68.7099 33.3745C71.162 33.7001 75.6258 31.3618 75.5021 35.471C75.8225 35.9818 78.2263 38.7305 78.4413 37.4183C79.2768 35.5712 83.871 38.6201 82.296 35.1211C82.093 34.8554 81.1988 34.1496 80.4512 34.0643C80.1484 34.0181 78.4246 34.8523 78.1274 32.672C77.1552 30.5838 76.4627 36.5371 75.4883 32.9191C77.935 33.0773 74.0569 28.5871 74.6194 30.5124C75.1447 34.0723 72.757 30.9062 74.1322 29.1571C71.5395 27.715 70.7854 33.3758 67.9049 33.1247C67.9213 33.1346 67.9414 33.1384 67.9582 33.1474L67.4879 33.0246L66.7736 32.8094C66.4028 31.9091 64.5957 31.0813 65.8955 29.4408C65.55 26.9594 67.0129 26.6593 68.9901 27.6824C71.6001 27.1958 65.8623 23.0184 70.2431 23.9891C68.4017 23.3761 67.6234 23.1403 68.289 20.8315C67.4614 23.6939 64.6088 20.541 67.174 19.678C68.0958 19.4855 66.1076 17.5214 68.2549 17.9973C69.6283 18.4713 70.0682 24.995 71.8801 21.9243C72.9128 22.0012 71.855 19.5362 72.3151 19.6149C69.6273 19.4074 70.6274 14.9491 71.2427 13.3763C72.0184 13.7276 72.8425 13.9863 73.415 14.0803ZM50.9116 6.18179C50.7319 6.13265 50.3516 6.15534 49.7013 6.31134C48.9611 6.32728 47.0253 7.48214 49.0043 6.84866C50.1882 7.11409 51.4514 6.32734 50.9116 6.18179ZM73.2636 16.1962C72.9449 16.0961 73.6212 17.3123 73.4661 16.3301C73.4073 16.2735 73.3387 16.2282 73.2636 16.1962ZM47.0041 5.97813C46.7494 5.85325 46.3144 5.81384 45.6443 5.91219C43.8159 5.34438 42.1447 9.19604 42.2908 8.98229C42.956 8.8453 43.8512 7.96544 44.503 8.30314C45.8202 8.68414 48.1081 6.52297 47.0037 5.97905L47.0041 5.97813ZM63.3451 12.6884C64.6424 13.153 66.2315 14.9811 63.3226 14.2016C62.8739 14.0175 62.4133 13.7379 62.2065 13.2743C62.2248 12.548 62.7562 12.4776 63.3447 12.6893L63.3451 12.6884ZM72.9501 17.174C72.4369 16.9097 74.2644 19.7462 73.737 17.9473C73.3114 17.4618 73.0679 17.2347 72.9497 17.1749L72.9501 17.174ZM67.2112 16.0107C67.3912 16.006 67.3219 16.9802 67.0452 16.2045C67.1137 16.065 67.1706 16.0125 67.2112 16.0107ZM68.9806 17.2775C69.0912 17.3612 69.1652 18.4982 68.8713 17.6561C68.9033 17.3378 68.9438 17.2485 68.9806 17.2775ZM74.5304 19.5347C74.2628 19.4283 74.1697 19.7164 74.687 20.7581C74.4845 21.9329 73.7155 22.2274 75.3164 21.7416C75.911 20.9966 74.9778 19.714 74.5304 19.5347ZM37.779 9.21762C37.4153 9.01832 37.0457 10.8979 38.0128 9.7505C37.9457 9.42117 37.8625 9.26444 37.779 9.21762ZM43.4906 12.4274C43.2512 12.326 43.2445 12.9836 43.7946 12.8377C43.6746 12.5775 43.5699 12.4606 43.4906 12.4274ZM80.2955 27.6246C79.7764 27.481 80.0162 31.4549 81.0113 30.0922C83.153 30.6005 81.5265 27.9415 80.7763 28.4983C80.5758 27.9098 80.4156 27.6582 80.2955 27.6246ZM37.1735 10.8462C36.8507 10.7908 35.9398 12.5286 37.2675 10.9922C37.2533 10.8969 37.2189 10.8538 37.1735 10.8462ZM75.6617 28.5862C75.5474 28.5755 75.6762 28.9309 76.2659 29.9059C76.6067 29.9384 77.537 31.9384 77.5048 31.0147C77.164 30.2162 76.0637 28.8216 75.724 28.6137C75.7053 28.6004 75.6841 28.5911 75.6617 28.5862ZM35.6781 12.389C35.3838 12.1941 34.3166 13.0323 35.7185 12.715C35.7728 12.5331 35.7462 12.4339 35.6781 12.389ZM79.4401 31.8244C79.2435 31.8277 79.573 33.2421 79.835 32.4258C79.6303 31.9781 79.5061 31.8242 79.4401 31.8244ZM72.1683 30.6232C72.5969 30.7236 71.6033 32.4818 71.1901 31.2472C71.7236 30.7406 72.0253 30.59 72.1683 30.6232ZM80.1638 34.6265C80.6259 34.7481 80.4985 36.1476 79.5139 35.0717C79.7892 34.6882 80.0095 34.5865 80.1638 34.6265ZM55.7334 26.8182C56.1909 27.0523 55.7917 27.7838 54.9745 26.8298C55.3334 26.7164 55.5806 26.74 55.7334 26.8182ZM56.9654 27.8854C57.1294 28.0371 56.468 28.577 56.4713 27.9224C56.7644 27.8276 56.9113 27.8354 56.9654 27.8854ZM60.7794 33.2678C61.0744 33.3119 60.5633 34.2289 60.4311 33.4082C60.6006 33.2935 60.7113 33.2575 60.7794 33.2678ZM28.1289 20.3499C28.3079 20.4193 28.1648 21.9052 27.8388 20.8947C27.9737 20.4585 28.0692 20.3268 28.1289 20.3499ZM27.3427 21.2772C27.5086 21.379 26.733 23.0411 26.7976 21.8578C27.1276 21.382 27.2875 21.243 27.3427 21.2772ZM24.0002 20.5291C24.2848 20.8808 22.168 23.147 22.2924 23.9603C22.771 26.377 19.3137 28.9421 22.0145 30.8014C23.8909 29.1919 24.1191 31.4359 24.4516 31.2837C25.4877 31.5065 25.2076 34.1711 27.0729 34.5522C29.1674 35.1556 26.5712 38.7022 29.1355 40.2515C32.0892 42.578 29.9235 46.9228 33.3835 48.9745C35.0441 51.1347 40.9231 54.1685 37.589 56.898C34.2578 56.9173 33.9788 62.8592 30.1868 60.1388C29.1529 60.0303 28.3733 60.8006 27.4312 61.1468C24.277 58.0039 21.7933 54.2536 20.1306 50.123C19.5098 46.9289 17.9841 43.9441 18.0896 40.6087C17.0062 36.8181 20.0889 34.4689 20.8563 31.2865C21.368 29.6447 19.948 32.023 20.2344 29.7924C20.1 27.8228 20.7023 25.5369 21.0293 23.4911C21.5675 22.3769 22.1631 21.3075 22.8077 20.2796C22.7463 20.532 22.7211 20.7592 22.7444 20.9412C23.5456 20.5087 23.9053 20.4119 24.0002 20.5291ZM25.3095 21.0892C25.4818 21.1807 25.7067 21.3496 25.9988 21.6137C25.9112 23.6735 27.4206 24.9665 26.6042 25.5589C27.6606 26.5722 28.5264 29.7048 25.9913 27.4316C24.342 25.837 27.2884 26.2022 25.212 24.6285C25.5178 23.6111 24.102 20.4485 25.3095 21.0892ZM61.8859 36.5013C62.1806 36.6208 61.9302 37.9058 61.1447 37.3444C61.5043 36.6336 61.7516 36.4468 61.8859 36.5013ZM27.343 23.1094C27.4596 23.1945 27.5206 23.6346 27.2239 24.0149L27.117 23.8582C27.1157 23.3215 27.205 23.1117 27.2917 23.0951C27.3007 23.0935 27.31 23.0939 27.319 23.0962C27.3279 23.0985 27.3362 23.1027 27.3434 23.1085L27.343 23.1094ZM59.4309 36.1854C60.289 36.4773 61.5026 37.7658 59.5521 37.0492L58.9054 36.7869L58.8128 36.6879C58.7243 36.1265 59.0411 36.0532 59.4309 36.1854ZM24.5572 24.7957C24.9005 25.0266 25.4976 26.6725 24.4253 25.7327C24.2972 24.878 24.4004 24.69 24.5572 24.7957ZM28.0941 28.3578C28.5848 28.4888 28.7049 30.0016 27.5123 28.8372C27.7234 28.4232 27.9293 28.3147 28.0941 28.3578ZM29.4108 31.6452C29.5707 31.7964 28.5824 34.7252 28.6238 33.1678L28.7893 32.6879C29.1781 31.8519 29.3579 31.5947 29.4108 31.6452ZM51.3901 42.7752C51.7292 42.9581 52.5592 44.1492 51.4578 43.4252C51.1831 42.8175 51.2347 42.6928 51.3901 42.7752ZM52.9701 43.881C53.2945 44.0072 52.777 44.9399 52.5966 43.9561C52.7752 43.8667 52.8947 43.8515 52.9701 43.881ZM52.3346 44.6181C52.8611 44.7378 52.0736 45.5621 51.739 44.6765C52.0214 44.6 52.2134 44.5895 52.3346 44.6181ZM51.4462 44.4034C51.6212 44.496 51.1589 45.3378 51.025 44.6437C51.2599 44.4239 51.3886 44.3725 51.4462 44.4034ZM67.9495 58.1301C68.1236 58.2223 67.6617 59.0632 67.5275 58.37C67.7632 58.1506 67.892 58.0992 67.9495 58.1301Z"/>
</g>
<defs>
<clipPath id="clip0_18533_2">
<rect width="100" height="100"/>
</clipPath>
</defs>
</svg>
